External Loads File
version=1
nRows=93
nColumns=13
Range=5.000000e-03-10 seconds
endheader
time 	forceRightX 	forceRightY 	forceRightZ 	pointRightX 	pointRightY 	pointRightZ 	forceLeftX 	forceLeftY 	forceLeftZ 	pointLeftX 	pointLeftY 	pointLeftZ 		
2.505000 264.797432 482.675580 -0.000000 0.255575 0.151551 -0.137100 -106.872211 -93.197193 -0.000000 0.310001 0.492473 -0.372422
2.510000 261.992177 450.640525 -0.000000 0.246685 0.151298 -0.137319 -108.547072 -80.510470 -0.000000 0.319032 0.493034 -0.372177
2.515000 256.822929 417.300312 -0.000000 0.237988 0.151675 -0.137543 -110.267968 -68.151979 -0.000000 0.327869 0.492832 -0.371919
2.520000 249.257187 382.816137 -0.000000 0.229619 0.153031 -0.137923 -112.138229 -56.060796 -0.000000 0.336418 0.492002 -0.371826
2.525000 239.070258 347.673067 -0.000000 0.221466 0.153889 -0.138197 -114.293164 -44.132626 -0.000000 0.344626 0.490534 -0.371670
2.530000 227.197132 311.778609 -0.000000 0.213635 0.156430 -0.138559 -117.122266 -31.820336 -0.000000 0.352538 0.488378 -0.371471
2.535000 213.370111 276.060765 -0.000000 0.206185 0.159115 -0.138850 -120.996309 -18.909445 -0.000000 0.360045 0.485508 -0.371462
2.540000 198.143729 241.071978 -0.000000 0.199056 0.162262 -0.139064 -126.533797 -4.863538 -0.000000 0.367039 0.481946 -0.371491
2.545000 182.064953 207.506705 -0.000000 0.192499 0.166065 -0.139245 -134.439698 10.935005 -0.000000 0.373646 0.477787 -0.371458
2.550000 166.065227 175.764553 -0.000000 0.185941 0.170353 -0.139569 -145.352670 29.479437 -0.000000 0.379858 0.472663 -0.371609
2.555000 150.399223 146.781059 -0.000000 0.179834 0.175135 -0.139741 -159.759184 51.411488 -0.000000 0.385533 0.466673 -0.372051
2.560000 135.626968 121.065032 -0.000000 0.174039 0.180351 -0.140039 -177.873781 77.538755 -0.000000 0.390764 0.460034 -0.372631
2.565000 122.216431 98.882977 -0.000000 0.168550 0.186216 -0.140094 -199.579548 108.571122 -0.000000 0.395604 0.452709 -0.372853
2.570000 110.299635 80.429068 -0.000000 0.163422 0.192400 -0.140306 -224.681641 144.582864 -0.000000 0.400138 0.444905 -0.373067
2.575000 99.919753 65.501383 -0.000000 0.158603 0.199081 -0.140419 -252.804512 185.329323 -0.000000 0.404130 0.436581 -0.373334
2.580000 90.906070 53.676993 -0.000000 0.154211 0.206187 -0.140580 -283.394413 230.223378 -0.000000 0.407958 0.427780 -0.373417
2.585000 82.860945 44.494738 -0.000000 0.150330 0.213735 -0.140825 -315.893564 278.237131 -0.000000 0.411549 0.418484 -0.373379
2.590000 75.266234 37.585478 -0.000000 0.146921 0.221653 -0.141038 -350.052876 327.833463 -0.000000 0.414665 0.409016 -0.373211
2.595000 67.726199 32.596494 -0.000000 0.143990 0.229659 -0.141389 -385.379020 377.870737 -0.000000 0.417370 0.399157 -0.373060
2.600000 60.024470 29.375863 -0.000000 0.141695 0.237695 -0.141668 -421.525373 427.341700 -0.000000 0.419768 0.388976 -0.372935
2.605000 52.291254 27.707189 -0.000000 0.139943 0.246758 -0.141969 -456.537124 477.189111 -0.000000 0.421800 0.378438 -0.372753
2.610000 44.631828 27.851172 -0.000000 0.138706 0.255619 -0.142293 -491.811003 525.446915 -0.000000 0.423287 0.367930 -0.372563
2.615000 37.404114 29.647697 -0.000000 0.138123 0.264573 -0.142426 -525.880830 573.152734 -0.000000 0.424180 0.357151 -0.372319
2.620000 30.889430 32.913014 -0.000000 0.138122 0.273812 -0.142345 -557.520356 621.094775 -0.000000 0.424532 0.346306 -0.372137
2.625000 25.227494 37.378230 -0.000000 0.138771 0.283141 -0.142080 -585.954256 669.512492 -0.000000 0.424219 0.335456 -0.372019
2.630000 20.495229 42.643865 -0.000000 0.139778 0.292695 -0.141828 -609.181913 719.459518 -0.000000 0.423199 0.324591 -0.371888
2.635000 16.650895 48.326417 -0.000000 0.141459 0.302295 -0.141790 -625.713144 771.168952 -0.000000 0.421598 0.313606 -0.371732
2.640000 13.581174 54.069928 -0.000000 0.143643 0.312026 -0.141644 -634.402378 824.221570 -0.000000 0.419295 0.302812 -0.371453
2.645000 11.182451 59.521784 -0.000000 0.146509 0.321855 -0.141482 -633.302041 878.418644 -0.000000 0.416632 0.292051 -0.371537
2.650000 9.217336 64.343625 -0.000000 0.149957 0.331669 -0.141536 -621.474303 932.391530 -0.000000 0.413146 0.281416 -0.371492
2.655000 7.351692 68.199647 -0.000000 0.153776 0.341562 -0.141494 -598.417143 984.260784 -0.000000 0.409178 0.271081 -0.371389
2.660000 5.252926 70.788624 -0.000000 0.158176 0.351428 -0.141471 -563.562965 1032.089769 -0.000000 0.404605 0.261004 -0.371242
2.665000 2.603177 71.885699 -0.000000 0.162983 0.361208 -0.141594 -517.090956 1073.539411 -0.000000 0.399544 0.251082 -0.371149
2.670000 -0.833656 71.363375 -0.000000 0.168309 0.371030 -0.141498 -459.613322 1106.292481 -0.000000 0.393911 0.241501 -0.371145
2.675000 -5.158702 69.202403 -0.000000 0.174295 0.380915 -0.141508 -391.773209 1128.334285 -0.000000 0.387688 0.232216 -0.371116
2.680000 -10.622189 65.437621 -0.000000 0.180571 0.390422 -0.141237 -319.036118 1136.607037 -0.000000 0.381116 0.223344 -0.371042
2.685000 -17.041709 60.155579 -0.000000 0.187475 0.399827 -0.140833 -242.054514 1130.683158 -0.000000 0.374101 0.214937 -0.371197
2.690000 -24.334083 53.443683 -0.000000 0.194839 0.409030 -0.140179 -165.133911 1109.864133 -0.000000 0.366881 0.206983 -0.371436
2.695000 -32.267430 45.443418 -0.000000 0.202541 0.418001 -0.139756 -91.704167 1074.734804 -0.000000 0.359486 0.199491 -0.371391
2.700000 -40.552058 36.446042 -0.000000 0.210467 0.426451 -0.139515 -24.611160 1026.931297 -0.000000 0.351592 0.192744 -0.371368
2.705000 -48.878484 26.973904 -0.000000 0.218604 0.434186 -0.139361 34.033625 968.992931 -0.000000 0.343494 0.186494 -0.371543
2.710000 -56.898324 17.754219 -0.000000 0.226792 0.441450 -0.139637 83.441617 904.004184 -0.000000 0.335158 0.180863 -0.371676
2.715000 -64.248226 9.613786 -0.000000 0.235347 0.448239 -0.139568 124.643424 834.994946 -0.000000 0.326571 0.175755 -0.371882
2.720000 -70.647824 3.118005 -0.000000 0.244140 0.454208 -0.139484 157.286364 764.938078 -0.000000 0.317804 0.171125 -0.372223
2.725000 -75.868682 -1.335799 -0.000000 0.253044 0.459768 -0.139349 182.312943 696.299703 -0.000000 0.308857 0.167093 -0.372542
2.730000 -79.771062 -3.552211 -0.000000 0.262203 0.464563 -0.139123 201.018987 630.876860 -0.000000 0.299784 0.163690 -0.372814
2.735000 -82.296640 -3.593627 -0.000000 0.271317 0.468630 -0.139072 214.307346 569.919849 -0.000000 0.290553 0.160870 -0.373266
2.740000 -83.464859 -1.509254 -0.000000 0.280918 0.472077 -0.138827 224.185128 513.555982 -0.000000 0.281281 0.158635 -0.373804
2.745000 -83.340964 2.289618 -0.000000 0.290329 0.474894 -0.138564 230.589438 462.048733 -0.000000 0.271885 0.157127 -0.374246
2.750000 -82.040436 7.564329 -0.000000 0.299858 0.477150 -0.138349 234.511089 414.783778 -0.000000 0.262552 0.156320 -0.374571
2.755000 -79.703637 14.075506 -0.000000 0.309286 0.478557 -0.138093 236.380144 371.096939 -0.000000 0.253129 0.156126 -0.375033
2.760000 -76.521597 21.557740 -0.000000 0.318451 0.479391 -0.137812 235.986440 330.650697 -0.000000 0.243910 0.156663 -0.375360
2.765000 -72.683676 30.013433 -0.000000 0.327538 0.479476 -0.137538 233.864396 292.703502 -0.000000 0.234815 0.157936 -0.375686
2.770000 -68.442603 39.395906 -0.000000 0.336314 0.478845 -0.137124 229.866584 257.171852 -0.000000 0.225934 0.159895 -0.375970
2.775000 -64.095747 49.814462 -0.000000 0.344719 0.477783 -0.136751 224.029074 224.157473 -0.000000 0.217346 0.162406 -0.376238
2.780000 -59.864587 61.681337 -0.000000 0.352675 0.475692 -0.136317 216.937616 193.517245 -0.000000 0.208918 0.165784 -0.376521
2.785000 -56.135430 75.411615 -0.000000 0.360150 0.473317 -0.135893 208.613125 165.973557 -0.000000 0.200927 0.169727 -0.376672
2.790000 -52.978581 91.869687 -0.000000 0.367308 0.470069 -0.135208 199.921614 141.511150 -0.000000 0.193118 0.174251 -0.377014
2.795000 -50.575861 111.850219 -0.000000 0.373754 0.466221 -0.134730 191.156711 120.841961 -0.000000 0.185592 0.179354 -0.377178
2.800000 -48.807213 136.180882 -0.000000 0.379916 0.461848 -0.134176 182.935394 104.105900 -0.000000 0.178413 0.185092 -0.377200
2.805000 -47.757468 165.317231 -0.000000 0.385498 0.456742 -0.133645 175.578333 91.647381 -0.000000 0.171527 0.191283 -0.377357
2.810000 -47.467233 199.399981 -0.000000 0.390605 0.450738 -0.132682 169.444448 83.489600 -0.000000 0.164881 0.197965 -0.377584
2.815000 -48.513412 238.031846 -0.000000 0.395021 0.444127 -0.131932 164.617366 79.917852 -0.000000 0.158731 0.205170 -0.377751
2.820000 -50.904046 280.519893 -0.000000 0.399474 0.437055 -0.131623 161.332991 80.550224 -0.000000 0.152920 0.212836 -0.377868
2.825000 -55.231065 325.708365 -0.000000 0.403240 0.429278 -0.131114 159.477511 85.254011 -0.000000 0.147579 0.220931 -0.377971
2.830000 -61.620293 372.360085 -0.000000 0.406999 0.421237 -0.130995 158.928195 93.413446 -0.000000 0.142686 0.229369 -0.377953
2.835000 -70.097047 419.219759 -0.000000 0.410389 0.412624 -0.131006 159.429247 104.236805 -0.000000 0.138469 0.238196 -0.377804
2.840000 -80.374361 465.154664 -0.000000 0.413635 0.403552 -0.131184 160.700431 116.699069 -0.000000 0.134892 0.247290 -0.377848
2.845000 -92.645745 509.096721 -0.000000 0.416179 0.394085 -0.131235 162.297766 129.852663 -0.000000 0.131982 0.256494 -0.377959
2.850000 -105.819786 550.406159 -0.000000 0.418415 0.384330 -0.131350 164.065805 142.277012 -0.000000 0.129916 0.266093 -0.378042
2.855000 -119.513148 588.552664 -0.000000 0.420347 0.374230 -0.131536 165.602996 152.827555 -0.000000 0.128593 0.275692 -0.378101
2.860000 -133.245271 623.236816 -0.000000 0.421457 0.364003 -0.131541 166.447807 160.423069 -0.000000 0.127992 0.285445 -0.378127
2.865000 -145.407316 654.579481 -0.000000 0.422479 0.353475 -0.132180 166.379731 163.886731 -0.000000 0.128185 0.295304 -0.378107
2.870000 -155.964446 682.488407 -0.000000 0.422675 0.342855 -0.132308 164.772022 162.774556 -0.000000 0.129174 0.305184 -0.378090
2.875000 -163.785842 707.153277 -0.000000 0.422237 0.332128 -0.132432 161.307176 156.753058 -0.000000 0.130931 0.315077 -0.377966
2.880000 -167.746528 728.750962 -0.000000 0.421263 0.321196 -0.132334 155.733652 145.941982 -0.000000 0.133503 0.324945 -0.377682
2.885000 -167.435134 747.277723 -0.000000 0.419722 0.310283 -0.132226 147.831384 131.001274 -0.000000 0.136681 0.334866 -0.377163
2.890000 -163.070769 762.607775 -0.000000 0.417497 0.299439 -0.132250 137.573784 112.894664 -0.000000 0.140327 0.344617 -0.376988
2.895000 -154.778425 774.677591 -0.000000 0.414680 0.288834 -0.132055 125.243633 92.500969 -0.000000 0.144530 0.354198 -0.377100
2.900000 -142.148442 783.573538 -0.000000 0.411070 0.278494 -0.132530 111.304062 70.444428 -0.000000 0.148974 0.363746 -0.376124
2.905000 -124.547712 789.439496 -0.000000 0.407018 0.268251 -0.132797 96.167048 47.208127 -0.000000 0.154179 0.373256 -0.375678
2.910000 -102.755537 792.194374 -0.000000 0.402330 0.258323 -0.133106 80.051088 23.383607 -0.000000 0.159698 0.382806 -0.375422
2.915000 -77.756632 791.807760 -0.000000 0.397112 0.248636 -0.133437 63.178693 -0.529279 -0.000000 0.165750 0.392012 -0.374984
2.920000 -48.967115 788.444491 -0.000000 0.391132 0.239242 -0.133446 45.752604 -24.216265 -0.000000 0.172169 0.401267 -0.374675
2.925000 -19.406530 782.033721 -0.000000 0.384905 0.230334 -0.134151 28.034740 -47.160155 -0.000000 0.178897 0.410129 -0.374289
2.930000 13.193859 772.793178 -0.000000 0.377909 0.221635 -0.134283 10.095398 -69.132756 -0.000000 0.186128 0.419011 -0.374067
2.935000 45.444247 760.775489 -0.000000 0.370659 0.213282 -0.134565 -7.629389 -89.692198 -0.000000 0.193561 0.427482 -0.373981
2.940000 79.025646 745.953421 -0.000000 0.362727 0.205166 -0.134838 -25.089762 -108.479426 -0.000000 0.201394 0.436001 -0.374135
2.945000 109.612505 728.800653 -0.000000 0.354539 0.197825 -0.135104 -41.457216 -125.224977 -0.000000 0.209585 0.443200 -0.374279
2.950000 140.437462 709.079229 -0.000000 0.346083 0.190782 -0.135277 -57.044964 -139.293423 -0.000000 0.218518 0.450509 -0.374945
2.955000 166.381216 688.051432 -0.000000 0.337275 0.184489 -0.135405 -70.745627 -150.461156 -0.000000 0.226671 0.457214 -0.374362
2.960000 190.348208 665.657582 -0.000000 0.328218 0.178806 -0.135487 -83.008541 -157.943800 -0.000000 0.235461 0.463359 -0.374072
2.965000 210.638982 642.823320 -0.000000 0.319276 0.173353 -0.135943 -93.385683 -161.515994 -0.000000 0.244376 0.468994 -0.374064
